<svg width="283" height="62" viewBox="0 0 283 62" fill="none" xmlns="http://www.w3.org/2000/svg">
<path d="M94.088 27.9323C100.887 27.9323 105.592 24.0733 105.592 15.4415H93.6758V19.2666H100.372C100.338 19.4697 100.304 19.6728 100.235 19.842C99.617 22.2793 97.179 23.7348 94.088 23.7348C89.967 23.7348 86.7733 20.1467 86.7733 15.9831C86.7733 11.8195 89.967 8.36671 94.088 8.36671C96.148 8.36671 98.037 9.24683 99.376 10.6685L102.845 7.72355C100.784 5.45557 97.659 4 94.088 4C87.2884 4 82 9.34838 82 15.9831C82 22.5839 87.2884 27.9323 94.088 27.9323Z" fill="#A62E2E"/>
<path d="M116.371 27.9323C120.938 27.9323 124.99 24.6827 124.99 19.7066C124.99 14.6968 120.938 11.4471 116.371 11.4471C111.804 11.4471 107.751 14.6968 107.751 19.7066C107.751 24.6827 111.804 27.9323 116.371 27.9323ZM116.371 23.8025C114.139 23.8025 112.319 22.1439 112.319 19.7066C112.319 17.2355 114.139 15.5769 116.371 15.5769C118.603 15.5769 120.423 17.2355 120.423 19.7066C120.423 22.1439 118.603 23.8025 116.371 23.8025Z" fill="#A62E2E"/>
<path d="M141.171 27.6276H146.768L140.621 19.0296C144.605 18.2172 146.356 15.2384 146.356 11.921C146.356 8.09589 144.021 4.30463 138.595 4.30463H129.151V27.6276H133.925V19.2666H135.539L141.171 27.6276ZM133.925 8.46824H138.114C140.346 8.46824 141.548 10.1608 141.548 12.0226C141.548 13.8843 140.415 15.4753 137.737 15.4753H133.925V8.46824Z" fill="#A62E2E"/>
<path d="M165.426 19.4697C165.426 14.6291 161.682 11.4471 157.115 11.4471C152.513 11.4471 148.599 14.6291 148.599 19.7405C148.599 24.615 152.204 27.9323 157.115 27.9323C159.931 27.9323 162.747 26.8491 164.258 24.8519L161.614 22.2454C160.652 23.3625 159.038 24.0056 157.424 24.0056C155.261 24.0056 153.75 22.9901 153.269 21.1622H165.357C165.391 20.4513 165.426 19.9097 165.426 19.4697ZM153.269 18.2849C153.75 16.1523 155.364 15.3061 157.184 15.3061C159.21 15.3061 160.79 16.4231 160.927 18.2849H153.269Z" fill="#A62E2E"/>
<path d="M174.576 27.9323C177.873 27.9323 181.307 26.3075 181.307 22.9901C181.307 21.7038 180.826 19.3343 176.98 18.3188L174.336 17.6417C173.443 17.4048 172.756 17.0324 172.756 16.2877C172.756 15.4753 173.581 14.9676 174.611 14.9676C175.675 14.9676 176.568 15.543 176.568 16.5924H180.861C180.895 12.8688 177.461 11.4471 174.542 11.4471C170.833 11.4471 168.258 13.7151 168.258 16.1523C168.258 17.811 168.807 20.079 172.928 21.1622L175.057 21.67C176.259 21.9746 176.809 22.3131 176.809 22.9901C176.809 23.9041 175.813 24.4457 174.508 24.4457C172.928 24.4457 172.138 23.464 172.138 22.5501H167.914C167.949 26.0367 171.211 27.9323 174.576 27.9323Z" fill="#A62E2E"/>
<path d="M194.216 11.8533H190.817V6.06488H186.318V11.8533H183.399V15.2722H186.318V27.6276H190.817V15.2722H194.216V11.8533Z" fill="#A62E2E"/>
<path d="M208.899 11.8533V13.7489C207.766 12.158 205.602 11.481 203.748 11.481C199.627 11.481 195.884 14.6291 195.884 19.7066C195.884 24.7842 199.627 27.9323 203.748 27.9323C205.534 27.9323 207.766 27.2214 208.899 25.6643V27.6276H213.398V11.8533H208.899ZM204.606 23.8025C202.34 23.8025 200.451 22.0085 200.451 19.7066C200.451 17.3709 202.34 15.6446 204.606 15.6446C206.701 15.6446 208.762 17.2694 208.762 19.7066C208.762 22.11 206.804 23.8025 204.606 23.8025Z" fill="#A62E2E"/>
<path d="M228.894 11.8533V19.9436C228.894 22.787 226.902 23.6333 225.288 23.6333C223.743 23.6333 222.232 22.5162 222.232 20.0451V11.8533H217.733V20.519C217.699 25.2581 219.897 28 224.086 28C225.666 28 228.207 27.1199 228.894 25.055V27.6276H233.393V11.8533H228.894Z" fill="#A62E2E"/>
<path d="M247.096 11.4471C245.104 11.4471 243.284 12.5642 242.391 15.2045V11.8533H237.927V27.6276H242.425V22.2116C242.425 17.7094 244.005 15.6107 246.306 15.6107C246.855 15.6107 247.645 15.6784 248.607 16.1862L249.637 11.9549C248.916 11.5825 247.954 11.4471 247.096 11.4471Z" fill="#A62E2E"/>
<path d="M263.73 11.8533V13.7489C262.597 12.158 260.433 11.481 258.579 11.481C254.458 11.481 250.715 14.6291 250.715 19.7066C250.715 24.7842 254.458 27.9323 258.579 27.9323C260.365 27.9323 262.597 27.2214 263.73 25.6643V27.6276H268.228V11.8533H263.73ZM259.437 23.8025C257.171 23.8025 255.282 22.0085 255.282 19.7066C255.282 17.3709 257.171 15.6446 259.437 15.6446C261.532 15.6446 263.593 17.2694 263.593 19.7066C263.593 22.11 261.635 23.8025 259.437 23.8025Z" fill="#A62E2E"/>
<path d="M282.077 11.4471C280.497 11.4471 277.956 12.3611 277.269 14.4937V11.8533H272.77V27.6276H277.269V19.5374C277.269 16.6601 279.261 15.8138 280.875 15.8138C282.42 15.8138 283.931 16.9309 283.931 19.4358V27.6276H288.43V18.9619C288.464 14.2228 286.266 11.4471 282.077 11.4471Z" fill="#A62E2E"/>
<path d="M90.6529 52.2344C90.514 53.4151 90.074 54.3275 89.333 54.9715C88.5971 55.6104 87.6168 55.9299 86.3921 55.9299C85.0644 55.9299 83.9992 55.4571 83.1964 54.5115C82.3988 53.5659 82 52.3008 82 50.7163V49.6429C82 48.6053 82.1853 47.693 82.5558 46.9058C82.9314 46.1187 83.4614 45.5155 84.1459 45.0964C84.8303 44.6721 85.6227 44.46 86.5233 44.46C87.7172 44.46 88.6743 44.7923 89.3947 45.4567C90.1152 46.1161 90.5346 47.031 90.6529 48.2015H89.1632C89.0345 47.3122 88.7541 46.6681 88.3218 46.2694C87.8947 45.8708 87.2952 45.6714 86.5233 45.6714C85.5764 45.6714 84.8328 46.019 84.2925 46.7141C83.7573 47.4093 83.4898 48.3983 83.4898 49.6813V50.7623C83.4898 51.9737 83.7445 52.9372 84.2539 53.6528C84.7634 54.3684 85.4761 54.7262 86.3921 54.7262C87.2154 54.7262 87.8458 54.5422 88.2832 54.1742C88.7258 53.801 89.0191 53.1544 89.1632 52.2344H90.6529Z" fill="#FFB84D"/>
<path d="M92.0809 51.552C92.0809 50.7393 92.2404 50.0084 92.5595 49.3593C92.8837 48.7101 93.3314 48.2092 93.9026 47.8565C94.479 47.5038 95.135 47.3275 95.871 47.3275C97.008 47.3275 97.927 47.7185 98.627 48.5005C99.332 49.2826 99.684 50.3227 99.684 51.621V51.7207C99.684 52.5283 99.527 53.2541 99.213 53.8981C98.904 54.5371 98.459 55.0354 97.878 55.3932C97.301 55.751 96.638 55.9299 95.886 55.9299C94.754 55.9299 93.8357 55.5389 93.1307 54.7568C92.4308 53.9748 92.0809 52.9398 92.0809 51.6517V51.552ZM93.5166 51.7207C93.5166 52.6407 93.7302 53.3793 94.157 53.9365C94.59 54.4936 95.166 54.7722 95.886 54.7722C96.612 54.7722 97.188 54.4911 97.615 53.9288C98.042 53.3614 98.256 52.5692 98.256 51.552C98.256 50.6422 98.037 49.9062 97.6 49.3439C97.168 48.7766 96.591 48.4929 95.871 48.4929C95.166 48.4929 94.597 48.7714 94.165 49.3286C93.7328 49.8857 93.5166 50.6831 93.5166 51.7207Z" fill="#FFB84D"/>
<path d="M102.818 47.4808L102.857 48.4009C103.469 47.6853 104.295 47.3275 105.334 47.3275C106.502 47.3275 107.297 47.7722 107.719 48.6616C107.997 48.2629 108.358 47.9409 108.8 47.6955C109.248 47.4502 109.775 47.3275 110.382 47.3275C112.214 47.3275 113.146 48.291 113.177 50.218V55.7766H111.749V50.3023C111.749 49.7094 111.612 49.2673 111.34 48.9759C111.067 48.6794 110.609 48.5312 109.966 48.5312C109.436 48.5312 108.996 48.6897 108.646 49.0066C108.296 49.3184 108.093 49.7401 108.036 50.2716V55.7766H106.6V50.3406C106.6 49.1344 106.006 48.5312 104.817 48.5312C103.881 48.5312 103.24 48.9273 102.895 49.7196V55.7766H101.467V47.4808H102.818Z" fill="#FFB84D"/>
<path d="M116.89 55.7766H115.462V47.4808H116.89V55.7766ZM115.346 45.2804C115.346 45.0504 115.415 44.8562 115.554 44.6977C115.698 44.5392 115.909 44.46 116.187 44.46C116.465 44.46 116.676 44.5392 116.82 44.6977C116.964 44.8562 117.036 45.0504 117.036 45.2804C117.036 45.5104 116.964 45.7021 116.82 45.8554C116.676 46.0088 116.465 46.0854 116.187 46.0854C115.909 46.0854 115.698 46.0088 115.554 45.8554C115.415 45.7021 115.346 45.5104 115.346 45.2804Z" fill="#FFB84D"/>
<path d="M118.835 51.5597C118.835 50.287 119.138 49.2647 119.746 48.4929C120.353 47.716 121.148 47.3275 122.131 47.3275C123.108 47.3275 123.883 47.6597 124.454 48.3242V44H125.882V55.7766H124.57L124.5 54.8872C123.929 55.5823 123.134 55.9299 122.115 55.9299C121.148 55.9299 120.358 55.5363 119.746 54.7492C119.138 53.962 118.835 52.9346 118.835 51.667V51.5597ZM120.263 51.7207C120.263 52.6612 120.458 53.3972 120.849 53.9288C121.24 54.4604 121.781 54.7262 122.47 54.7262C123.376 54.7262 124.037 54.3224 124.454 53.5148V49.7043C124.027 48.9222 123.371 48.5312 122.486 48.5312C121.786 48.5312 121.24 48.7996 120.849 49.3363C120.458 49.8729 120.263 50.6678 120.263 51.7207Z" fill="#FFB84D"/>
<path d="M133.261 55.7766C133.179 55.613 133.112 55.3216 133.061 54.9025C132.397 55.5874 131.604 55.9299 130.683 55.9299C129.86 55.9299 129.183 55.6999 128.653 55.2399C128.128 54.7747 127.866 54.1869 127.866 53.4765C127.866 52.6126 128.195 51.943 128.854 51.4677C129.518 50.9872 130.449 50.747 131.648 50.747H133.038V50.0953C133.038 49.5995 132.888 49.2059 132.59 48.9146C132.291 48.6181 131.851 48.4699 131.27 48.4699C130.76 48.4699 130.333 48.5977 129.989 48.8532C129.644 49.1088 129.471 49.418 129.471 49.7809H128.036C128.036 49.3669 128.182 48.9682 128.476 48.5849C128.774 48.1964 129.175 47.8897 129.68 47.6648C130.189 47.4399 130.748 47.3275 131.355 47.3275C132.317 47.3275 133.071 47.5677 133.616 48.0482C134.162 48.5235 134.445 49.1804 134.466 50.0186V53.8368C134.466 54.5984 134.563 55.2041 134.759 55.6539V55.7766H133.261ZM130.892 54.6955C131.339 54.6955 131.764 54.5805 132.165 54.3505C132.567 54.1205 132.857 53.8215 133.038 53.4535V51.7514H131.918C130.169 51.7514 129.294 52.2599 129.294 53.2771C129.294 53.7218 129.443 54.0694 129.742 54.3198C130.04 54.5703 130.423 54.6955 130.892 54.6955Z" fill="#FFB84D"/>
<path d="M142.439 55.7766H140.957V44.6134H142.439V55.7766Z" fill="#FFB84D"/>
<path d="M146.87 45.4721V47.4808H148.429V48.5772H146.87V53.7218C146.87 54.054 146.939 54.3045 147.078 54.4732C147.217 54.6367 147.454 54.7185 147.788 54.7185C147.953 54.7185 148.179 54.6878 148.468 54.6265V55.7766C148.092 55.8788 147.727 55.9299 147.372 55.9299C146.733 55.9299 146.252 55.7382 145.928 55.3549C145.604 54.9715 145.442 54.4272 145.442 53.7218V48.5772H143.921V47.4808H145.442V45.4721H146.87Z" fill="#FFB84D"/>
<path d="M155.26 55.7766C155.178 55.613 155.111 55.3216 155.06 54.9025C154.396 55.5874 153.603 55.9299 152.682 55.9299C151.859 55.9299 151.182 55.6999 150.652 55.2399C150.127 54.7747 149.865 54.1869 149.865 53.4765C149.865 52.6126 150.194 51.943 150.853 51.4677C151.517 50.9872 152.448 50.747 153.647 50.747H155.036V50.0953C155.036 49.5995 154.887 49.2059 154.589 48.9146C154.29 48.6181 153.85 48.4699 153.269 48.4699C152.759 48.4699 152.332 48.5977 151.987 48.8532C151.643 49.1088 151.47 49.418 151.47 49.7809H150.035C150.035 49.3669 150.181 48.9682 150.475 48.5849C150.773 48.1964 151.174 47.8897 151.679 47.6648C152.188 47.4399 152.747 47.3275 153.354 47.3275C154.316 47.3275 155.07 47.5677 155.615 48.0482C156.161 48.5235 156.444 49.1804 156.464 50.0186V53.8368C156.464 54.5984 156.562 55.2041 156.758 55.6539V55.7766H155.26ZM152.891 54.6955C153.338 54.6955 153.763 54.5805 154.164 54.3505C154.566 54.1205 154.856 53.8215 155.036 53.4535V51.7514H153.917C152.168 51.7514 151.293 52.2599 151.293 53.2771C151.293 53.7218 151.442 54.0694 151.74 54.3198C152.039 54.5703 152.422 54.6955 152.891 54.6955Z" fill="#FFB84D"/>
<path d="M160.254 55.7766H158.826V44H160.254V55.7766Z" fill="#FFB84D"/>
<path d="M164.098 55.7766H162.67V47.4808H164.098V55.7766ZM162.555 45.2804C162.555 45.0504 162.624 44.8562 162.763 44.6977C162.907 44.5392 163.118 44.46 163.396 44.46C163.674 44.46 163.885 44.5392 164.029 44.6977C164.173 44.8562 164.245 45.0504 164.245 45.2804C164.245 45.5104 164.173 45.7021 164.029 45.8554C163.885 46.0088 163.674 46.0854 163.396 46.0854C163.118 46.0854 162.907 46.0088 162.763 45.8554C162.624 45.7021 162.555 45.5104 162.555 45.2804Z" fill="#FFB84D"/>
<path d="M171.547 55.7766C171.465 55.613 171.398 55.3216 171.347 54.9025C170.683 55.5874 169.89 55.9299 168.969 55.9299C168.146 55.9299 167.469 55.6999 166.939 55.2399C166.414 54.7747 166.152 54.1869 166.152 53.4765C166.152 52.6126 166.481 51.943 167.14 51.4677C167.804 50.9872 168.735 50.747 169.934 50.747H171.323V50.0953C171.323 49.5995 171.174 49.2059 170.876 48.9146C170.577 48.6181 170.137 48.4699 169.556 48.4699C169.046 48.4699 168.619 48.5977 168.274 48.8532C167.93 49.1088 167.757 49.418 167.757 49.7809H166.322C166.322 49.3669 166.468 48.9682 166.762 48.5849C167.06 48.1964 167.461 47.8897 167.966 47.6648C168.475 47.4399 169.033 47.3275 169.641 47.3275C170.603 47.3275 171.357 47.5677 171.902 48.0482C172.448 48.5235 172.731 49.1804 172.751 50.0186V53.8368C172.751 54.5984 172.849 55.2041 173.045 55.6539V55.7766H171.547ZM169.178 54.6955C169.625 54.6955 170.05 54.5805 170.451 54.3505C170.853 54.1205 171.143 53.8215 171.323 53.4535V51.7514H170.204C168.455 51.7514 167.58 52.2599 167.58 53.2771C167.58 53.7218 167.729 54.0694 168.027 54.3198C168.326 54.5703 168.709 54.6955 169.178 54.6955Z" fill="#FFB84D"/>
<path d="M176.341 47.4808L176.387 48.5235C177.025 47.7262 177.859 47.3275 178.888 47.3275C180.653 47.3275 181.543 48.3165 181.559 50.2946V55.7766H180.131V50.287C180.126 49.6889 179.987 49.2468 179.714 48.9606C179.446 48.6743 179.027 48.5312 178.456 48.5312C177.993 48.5312 177.586 48.6539 177.236 48.8992C176.886 49.1446 176.613 49.4666 176.418 49.8653V55.7766H174.99V47.4808H176.341Z" fill="#FFB84D"/>
<path d="M188.869 55.7766C188.786 55.613 188.719 55.3216 188.668 54.9025C188.004 55.5874 187.212 55.9299 186.29 55.9299C185.467 55.9299 184.79 55.6999 184.26 55.2399C183.735 54.7747 183.473 54.1869 183.473 53.4765C183.473 52.6126 183.802 51.943 184.461 51.4677C185.125 50.9872 186.056 50.747 187.255 50.747H188.645V50.0953C188.645 49.5995 188.495 49.2059 188.197 48.9146C187.899 48.6181 187.459 48.4699 186.877 48.4699C186.368 48.4699 185.94 48.5977 185.596 48.8532C185.251 49.1088 185.079 49.418 185.079 49.7809H183.643C183.643 49.3669 183.789 48.9682 184.083 48.5849C184.381 48.1964 184.783 47.8897 185.287 47.6648C185.796 47.4399 186.355 47.3275 186.962 47.3275C187.924 47.3275 188.678 47.5677 189.224 48.0482C189.769 48.5235 190.052 49.1804 190.073 50.0186V53.8368C190.073 54.5984 190.17 55.2041 190.366 55.6539V55.7766H188.869ZM186.499 54.6955C186.947 54.6955 187.371 54.5805 187.772 54.3505C188.174 54.1205 188.465 53.8215 188.645 53.4535V51.7514H187.525C185.776 51.7514 184.901 52.2599 184.901 53.2771C184.901 53.7218 185.05 54.0694 185.349 54.3198C185.647 54.5703 186.031 54.6955 186.499 54.6955Z" fill="#FFB84D"/>
<path d="M192.265 58L191.454 57.448C191.938 56.7784 192.19 56.0884 192.211 55.3779V54.0975H193.608V55.2092C193.608 55.7254 193.479 56.2417 193.222 56.7579C192.97 57.2742 192.651 57.6882 192.265 58Z" fill="#FFB84D"/>
<path d="M204.198 53.5761C204.198 53.1928 204.052 52.8963 203.758 52.6867C203.47 52.4721 202.963 52.2881 202.238 52.1347C201.517 51.9814 200.943 51.7974 200.516 51.5827C200.094 51.368 199.781 51.1124 199.575 50.816C199.374 50.5195 199.274 50.1668 199.274 49.7579C199.274 49.0781 199.562 48.5031 200.138 48.0329C200.72 47.5626 201.461 47.3275 202.361 47.3275C203.308 47.3275 204.075 47.5703 204.661 48.0559C205.253 48.5414 205.549 49.1625 205.549 49.9189H204.113C204.113 49.5305 203.946 49.1957 203.612 48.9146C203.282 48.6334 202.866 48.4929 202.361 48.4929C201.841 48.4929 201.435 48.6053 201.142 48.8302C200.848 49.0551 200.702 49.349 200.702 49.7119C200.702 50.0544 200.838 50.3125 201.111 50.4863C201.383 50.6601 201.875 50.8262 202.585 50.9847C203.3 51.1431 203.879 51.3322 204.322 51.552C204.764 51.7718 205.091 52.0376 205.302 52.3494C205.518 52.6561 205.626 53.0318 205.626 53.4765C205.626 54.2176 205.328 54.8131 204.731 55.2629C204.134 55.7076 203.36 55.9299 202.408 55.9299C201.739 55.9299 201.147 55.8123 200.632 55.5772C200.118 55.3421 199.714 55.015 199.42 54.5958C199.132 54.1716 198.988 53.7141 198.988 53.2234H200.416C200.442 53.6988 200.632 54.077 200.987 54.3582C201.347 54.6342 201.821 54.7722 202.408 54.7722C202.948 54.7722 203.38 54.6648 203.704 54.4502C204.034 54.2304 204.198 53.939 204.198 53.5761Z" fill="#FFB84D"/>
<path d="M209.038 55.7766H207.61V47.4808H209.038V55.7766ZM207.494 45.2804C207.494 45.0504 207.564 44.8562 207.703 44.6977C207.847 44.5392 208.058 44.46 208.336 44.46C208.614 44.46 208.825 44.5392 208.969 44.6977C209.113 44.8562 209.185 45.0504 209.185 45.2804C209.185 45.5104 209.113 45.7021 208.969 45.8554C208.825 46.0088 208.614 46.0854 208.336 46.0854C208.058 46.0854 207.847 46.0088 207.703 45.8554C207.564 45.7021 207.494 45.5104 207.494 45.2804Z" fill="#FFB84D"/>
<path d="M212.674 47.4808L212.712 48.4009C213.325 47.6853 214.151 47.3275 215.19 47.3275C216.358 47.3275 217.153 47.7722 217.575 48.6616C217.853 48.2629 218.213 47.9409 218.656 47.6955C219.104 47.4502 219.631 47.3275 220.238 47.3275C222.07 47.3275 223.002 48.291 223.032 50.218V55.7766H221.604V50.3023C221.604 49.7094 221.468 49.2673 221.195 48.9759C220.923 48.6794 220.465 48.5312 219.821 48.5312C219.291 48.5312 218.851 48.6897 218.501 49.0066C218.152 49.3184 217.948 49.7401 217.892 50.2716V55.7766H216.456V50.3406C216.456 49.1344 215.862 48.5312 214.673 48.5312C213.736 48.5312 213.096 48.9273 212.751 49.7196V55.7766H211.323V47.4808H212.674Z" fill="#FFB84D"/>
<path d="M225.225 55.0329C225.225 54.7875 225.297 54.5831 225.441 54.4195C225.59 54.2559 225.811 54.1742 226.105 54.1742C226.398 54.1742 226.619 54.2559 226.768 54.4195C226.923 54.5831 227 54.7875 227 55.0329C227 55.268 226.923 55.4648 226.768 55.6232C226.619 55.7817 226.398 55.8609 226.105 55.8609C225.811 55.8609 225.59 55.7817 225.441 55.6232C225.297 55.4648 225.225 55.268 225.225 55.0329Z" fill="#FFB84D"/>
<path fill-rule="evenodd" clip-rule="evenodd" d="M32 16.3863C28.0372 16.3863 24.2897 15.7619 21.4481 14.6282C18.1848 13.3263 16.3875 11.4282 16.3876 9.28342C16.3876 7.13875 18.1849 5.24066 21.4482 3.93878C23.4813 3.12774 25.9794 2.57907 28.6871 2.33148C28.252 1.7631 28.2921 0.94524 28.8103 0.424548C29.3735 -0.141516 30.2867 -0.141516 30.85 0.424548L33.0197 2.60545C33.583 3.17152 33.583 4.0894 33.0197 4.65546L30.8499 6.83622C30.5683 7.11932 30.1991 7.2608 29.83 7.2608C29.4609 7.2608 29.0918 7.11932 28.8101 6.83622C28.3867 6.41048 28.2818 5.78585 28.4953 5.26153C26.2425 5.49927 24.1862 5.9656 22.5124 6.63342C20.1207 7.58754 19.2722 8.65734 19.2722 9.28342C19.2722 9.90949 20.1207 10.9793 22.5124 11.9334C25.0234 12.9352 28.3929 13.4869 32 13.4869C35.6071 13.4869 38.9766 12.9352 41.4877 11.9334C43.8793 10.9793 44.7279 9.90964 44.7279 9.28342C44.7279 8.26725 42.7568 6.76273 38.9897 5.85311C38.2152 5.66611 37.7382 4.88348 37.9242 4.10505C38.1102 3.32662 38.8892 2.8471 39.6635 3.03424C44.7153 4.25392 47.6125 6.53181 47.6125 9.28356C47.6125 11.4282 45.8152 13.3263 42.552 14.6282C39.7103 15.7619 35.9628 16.3863 32 16.3863ZM54.0449 22.9316C62.2728 25.5632 64 28.8933 64 31.2235C64 31.2615 63.9994 31.2998 63.9986 31.3382C63.9677 39.5286 60.6348 47.2209 54.6036 53.0091C48.5626 58.807 40.535 62 32 62C23.465 62 15.4376 58.807 9.39636 53.0091C3.36525 47.2209 0.0323082 39.5286 0.00144233 31.3382C0.000576933 31.2998 0 31.2615 0 31.2235C0 28.8933 1.72719 25.5632 9.95526 22.9314C15.8645 21.0416 23.6935 20.0008 32.0001 20.0008C37.5784 20.0008 42.9402 20.4709 47.651 21.3515L51.2414 15.8698C51.6795 15.2011 52.5738 15.0158 53.2392 15.456C53.9045 15.8963 54.0889 16.7952 53.6508 17.4639L50.6818 21.9969C51.8589 22.2804 52.9833 22.5921 54.0449 22.9316ZM61.1153 31.2235C61.1153 29.3804 58.071 27.2618 53.1701 25.6943C51.8716 25.279 50.4716 24.9072 48.9899 24.5802L43.0643 33.6274C47.4948 34.1688 51.5381 35.0324 54.8448 36.1683C58.7542 34.6827 61.1153 32.8463 61.1153 31.2235ZM14.3212 37.7103C19.4077 38.9025 25.5414 39.5469 32 39.5469C33.2755 39.5469 34.5381 39.5215 35.7825 39.472L38.0137 36.0656C36.0509 35.9376 34.0371 35.871 31.9996 35.871C25.5818 35.871 19.3965 36.5261 14.3212 37.7103ZM49.6789 37.7103C47.1254 37.1145 44.2905 36.6531 41.2866 36.3413L39.3765 39.2577C43.0908 38.96 46.5792 38.4368 49.6789 37.7103ZM31.9999 22.9001C23.9821 22.9001 16.4638 23.8925 10.8297 25.6943C5.92899 27.2616 2.88466 29.3804 2.88466 31.2235C2.88466 32.8465 5.2459 34.6828 9.15534 36.1683C15.077 34.134 23.3596 32.9717 31.9994 32.9717C34.6627 32.9717 37.2912 33.083 39.828 33.2953L45.9243 23.9876C41.688 23.2772 36.9391 22.9001 31.9999 22.9001ZM3.41054 36.5064C5.9962 49.3603 17.8318 59.1008 32 59.1008C46.1682 59.1008 58.0038 49.3605 60.5895 36.5064C59.0919 37.547 56.9831 38.5758 54.0449 39.5154C48.1358 41.4053 40.3067 42.4461 32 42.4461C23.6933 42.4461 15.8643 41.4053 9.95512 39.5154C7.01694 38.5757 4.90811 37.5469 3.41054 36.5064Z" fill="#FFB84D"/>
</svg>
